<?xml version="1.0" encoding="UTF-8" standalone="no"?>
<!DOCTYPE svg PUBLIC "-//W3C//DTD SVG 1.1//EN" "http://www.w3.org/Graphics/SVG/1.1/DTD/svg11.dtd">
<svg width="100%" height="100%" viewBox="0 0 48 48" version="1.1" xmlns="http://www.w3.org/2000/svg" xmlns:xlink="http://www.w3.org/1999/xlink" xml:space="preserve" xmlns:serif="http://www.serif.com/" style="fill-rule:evenodd;clip-rule:evenodd;stroke-linejoin:round;stroke-miterlimit:2;">
    <rect id="Artboard1" x="0" y="0" width="48" height="48" style="fill:none;"/>
    <g id="Artboard11" serif:id="Artboard1">
        <path d="M22.652,41.925C22.55,41.925 22.45,41.894 22.366,41.835C22.366,41.835 17.932,38.751 12.601,41.016C12.371,41.114 12.104,41.027 11.976,40.813L9.854,37.27C9.72,37.047 9.78,36.758 9.993,36.606C9.993,36.606 10.158,36.487 10.481,36.31C7.328,32.975 5.394,28.477 5.394,23.532C5.394,13.262 13.731,4.925 24,4.925C34.269,4.925 42.606,13.262 42.606,23.532C42.606,28.477 40.672,32.975 37.519,36.31C37.842,36.487 38.007,36.606 38.007,36.606C38.22,36.758 38.28,37.047 38.146,37.27L36.024,40.813C35.896,41.027 35.629,41.114 35.399,41.016C34.641,40.694 33.901,40.48 33.189,40.35L33.189,42.575C33.189,42.669 33.136,42.754 33.053,42.797C32.969,42.84 32.869,42.832 32.793,42.778C32.793,42.778 31.149,41.595 31.149,41.595L29.431,42.781C29.355,42.833 29.255,42.839 29.173,42.796C29.091,42.753 29.039,42.668 29.039,42.575L29.039,40.446C26.962,40.912 25.634,41.835 25.634,41.835C25.55,41.894 25.45,41.925 25.348,41.925L22.652,41.925ZM32.689,35.92L32.689,42.087C32.689,42.087 31.298,41.086 31.298,41.086C31.213,41.025 31.097,41.023 31.01,41.083L29.539,42.098L29.539,35.909C30.711,35.799 31.764,35.821 32.689,35.92ZM25.198,40.926C25.627,40.655 27.04,39.837 29.039,39.427L29.039,35.963C27.587,36.142 25.962,36.524 24.179,37.207C24.064,37.251 23.936,37.251 23.821,37.207C16.833,34.532 12.284,36.469 10.968,37.185C10.968,37.185 12.614,39.933 12.614,39.933C17.721,37.981 21.995,40.417 22.801,40.925L25.198,40.926ZM33.189,35.982C35.113,36.257 36.421,36.853 37.032,37.185C37.032,37.185 35.386,39.933 35.386,39.933C34.632,39.645 33.897,39.452 33.189,39.335L33.189,35.982ZM23.5,36.024C20.094,34.832 17.259,34.681 15.079,34.932L16.578,17.697C16.578,17.697 23.5,13.145 23.5,13.145L23.5,36.024ZM24.5,13.145C24.5,13.145 31.422,17.697 31.422,17.697L32.921,34.932C30.742,34.681 27.906,34.832 24.5,36.024L24.5,13.145ZM36.568,35.856C35.908,35.581 35.026,35.287 33.938,35.084L32.397,17.369C32.384,17.217 32.302,17.079 32.174,16.995L24.275,11.799C24.263,11.792 24.25,11.784 24.237,11.777C24.075,11.69 23.879,11.698 23.725,11.799L15.826,16.995C15.698,17.079 15.616,17.217 15.603,17.369L14.062,35.084C12.975,35.287 12.093,35.58 11.432,35.856C8.316,32.679 6.394,28.328 6.394,23.532C6.394,13.814 14.283,5.925 24,5.925C33.717,5.925 41.606,13.814 41.606,23.532C41.606,28.328 39.684,32.679 36.568,35.856Z" style="fill:white;"/>
    </g>
</svg>
