<?xml version="1.0" encoding="UTF-8" standalone="no"?>
<!DOCTYPE svg PUBLIC "-//W3C//DTD SVG 1.1//EN" "http://www.w3.org/Graphics/SVG/1.1/DTD/svg11.dtd">
<svg width="100%" height="100%" viewBox="0 0 24 24" version="1.1" xmlns="http://www.w3.org/2000/svg" xmlns:xlink="http://www.w3.org/1999/xlink" xml:space="preserve" xmlns:serif="http://www.serif.com/" style="fill-rule:evenodd;clip-rule:evenodd;stroke-linejoin:round;stroke-miterlimit:2;">
    <g transform="matrix(1,0,0,1,-29,0)">
        <g id="Artboard1" transform="matrix(0.375,0,0,0.375,29,0)">
            <rect x="0" y="0" width="64" height="64" style="fill:none;"/>
            <clipPath id="_clip1">
                <rect x="0" y="0" width="64" height="64"/>
            </clipPath>
            <g clip-path="url(#_clip1)">
                <g transform="matrix(2.44444,0,0,2.44444,2.66667,2.66667)">
                    <path d="M12,-1.091C4.775,-1.091 -1.091,4.775 -1.091,12C-1.091,19.225 4.775,25.091 12,25.091C19.225,25.091 25.091,19.225 25.091,12C25.091,4.775 19.225,-1.091 12,-1.091ZM12,1.091C18.021,1.091 22.909,5.979 22.909,12C22.909,18.021 18.021,22.909 12,22.909C5.979,22.909 1.091,18.021 1.091,12C1.091,5.979 5.979,1.091 12,1.091Z" style="fill:white;"/>
                </g>
                <g transform="matrix(2.66667,0,0,2.28571,-77.3333,3.42857)">
                    <path d="M37,9L37,16C37,16.644 37.448,17.167 38,17.167C38.552,17.167 39,16.644 39,16L39,9C39,8.356 38.552,7.833 38,7.833C37.448,7.833 37,8.356 37,9Z" style="fill:white;"/>
                </g>
                <g transform="matrix(2.66667,0,0,2.28571,-61.3333,3.42857)">
                    <path d="M37,9L37,16C37,16.644 37.448,17.167 38,17.167C38.552,17.167 39,16.644 39,16L39,9C39,8.356 38.552,7.833 38,7.833C37.448,7.833 37,8.356 37,9Z" style="fill:white;"/>
                </g>
            </g>
        </g>
    </g>
</svg>
