<?xml version="1.0" encoding="UTF-8" standalone="no"?>
<!DOCTYPE svg PUBLIC "-//W3C//DTD SVG 1.1//EN" "http://www.w3.org/Graphics/SVG/1.1/DTD/svg11.dtd">
<svg width="100%" height="100%" viewBox="0 0 24 24" version="1.1" xmlns="http://www.w3.org/2000/svg" xmlns:xlink="http://www.w3.org/1999/xlink" xml:space="preserve" xmlns:serif="http://www.serif.com/" style="fill-rule:evenodd;clip-rule:evenodd;stroke-linejoin:round;stroke-miterlimit:2;">
    <g id="Artboard1" transform="matrix(0.375,0,0,0.375,0,0)">
        <g transform="matrix(2.44444,0,0,2.44444,2.66667,2.66667)">
            <path d="M12,-1.091C4.775,-1.091 -1.091,4.775 -1.091,12C-1.091,19.225 4.775,25.091 12,25.091C19.225,25.091 25.091,19.225 25.091,12C25.091,4.775 19.225,-1.091 12,-1.091ZM12,1.091C18.021,1.091 22.909,5.979 22.909,12C22.909,18.021 18.021,22.909 12,22.909C5.979,22.909 1.091,18.021 1.091,12C1.091,5.979 5.979,1.091 12,1.091Z" style="fill:white;"/>
        </g>
        <g transform="matrix(2.66667,0,0,2.66667,0,0)">
            <path d="M9.01,7L9,7L8.988,7L8.974,7L8.962,7.001L8.949,7.001L8.934,7.002L8.926,7.003L8.917,7.004L8.898,7.005L8.878,7.008L8.874,7.008C8.762,7.022 8.655,7.055 8.558,7.103L8.524,7.121L8.515,7.126L8.498,7.135L8.482,7.145L8.473,7.15L8.44,7.171C8.35,7.232 8.269,7.308 8.202,7.398L8.187,7.418L8.176,7.434L8.171,7.441L8.166,7.448L8.158,7.46L8.151,7.472L8.145,7.482L8.138,7.494L8.132,7.504L8.127,7.512L8.121,7.524L8.113,7.539L8.107,7.549L8.104,7.556L8.099,7.567L8.09,7.585L8.086,7.595L8.083,7.601L8.079,7.611L8.071,7.63L8.066,7.642L8.061,7.656L8.054,7.676L8.049,7.689L8.045,7.703L8.04,7.721L8.035,7.736L8.032,7.75L8.028,7.766L8.023,7.784L8.02,7.799L8.018,7.812L8.014,7.832L8.012,7.848L8.01,7.86L8.007,7.881L8.006,7.892L8.005,7.898L8.004,7.909L8.002,7.929L8.002,7.941L8.001,7.949L8.001,7.96L8,7.977L8,7.99L8,8L8,16C8,16.356 8.19,16.686 8.498,16.865C8.806,17.044 9.187,17.045 9.496,16.868L16.496,12.868C16.808,12.69 17,12.359 17,12C17,11.641 16.808,11.31 16.496,11.132L9.496,7.132L9.488,7.127L9.476,7.121L9.461,7.113L9.451,7.107L9.444,7.104L9.433,7.099L9.415,7.09L9.405,7.086L9.399,7.083L9.389,7.079L9.37,7.071L9.358,7.066L9.344,7.061L9.324,7.054L9.311,7.049L9.297,7.045L9.279,7.04L9.264,7.035L9.25,7.032L9.234,7.028L9.216,7.023L9.201,7.02L9.188,7.018L9.168,7.014L9.152,7.012L9.14,7.01L9.119,7.007L9.108,7.006L9.102,7.005L9.091,7.004L9.071,7.002L9.059,7.002L9.051,7.001L9.04,7.001L9.023,7L9.01,7ZM10,9.723L10,14.277C10,14.277 13.984,12 13.984,12L10,9.723Z" style="fill:white;"/>
        </g>
    </g>
</svg>
