<svg width="30" height="28" viewBox="0 0 30 28" fill="none" xmlns="http://www.w3.org/2000/svg">
<path d="M26.955 27.7873L21.921 22.7533C19.7492 23.7421 17.3862 24.2404 15 24.2128C12.5398 24.2433 10.1051 23.7124 7.881 22.6603C6.15702 21.8191 4.60896 20.6574 3.3195 19.2373C1.95074 17.77 0.874946 16.0548 0.15 14.1838L0 13.7128L0.1575 13.2388C1.24172 10.4732 3.06638 8.0595 5.4315 6.26225L1.5 2.33075L3.6195 0.212753L29.073 25.6663L26.958 27.7873H26.955ZM7.554 8.38625C5.63689 9.73013 4.12298 11.5718 3.1755 13.7128C5.20713 18.4001 9.8938 21.3728 15 21.2128C16.5747 21.2257 18.1403 20.9721 19.6305 20.4628L16.9305 17.7628C16.3295 18.0574 15.6693 18.2112 15 18.2128C12.5212 18.1972 10.5156 16.1916 10.5 13.7128C10.5007 13.0419 10.6546 12.3801 10.95 11.7778L7.554 8.38625ZM26.778 19.1278L24.69 17.0413C25.5684 16.0481 26.2884 14.9254 26.8245 13.7128C24.7955 9.02312 20.1071 6.04937 15 6.21275C14.6295 6.21275 14.2575 6.22625 13.8975 6.25175L11.25 3.60125C12.4824 3.3376 13.7397 3.20735 15 3.21275C17.4602 3.18222 19.8949 3.71319 22.119 4.76525C23.843 5.60636 25.3911 6.76804 26.6805 8.18825C28.0486 9.6537 29.1244 11.3669 29.85 13.2358L30 13.7128L29.8425 14.1868C29.1402 16.0139 28.1012 17.6929 26.7795 19.1368L26.778 19.1278Z" fill="white"/>
</svg>
