<?xml version="1.0" encoding="UTF-8" standalone="no"?>
<!DOCTYPE svg PUBLIC "-//W3C//DTD SVG 1.1//EN" "http://www.w3.org/Graphics/SVG/1.1/DTD/svg11.dtd">
<svg width="100%" height="100%" viewBox="0 0 24 24" version="1.1" xmlns="http://www.w3.org/2000/svg" xmlns:xlink="http://www.w3.org/1999/xlink" xml:space="preserve" xmlns:serif="http://www.serif.com/" style="fill-rule:evenodd;clip-rule:evenodd;stroke-linejoin:round;stroke-miterlimit:2;">
    <g transform="matrix(1,0,0,1,-86,0)">
        <g id="Artboard1" transform="matrix(0.375,0,0,0.375,86,0)">
            <rect x="0" y="0" width="64" height="64" style="fill:none;"/>
            <g transform="matrix(3.2,0,0,2.66667,-184,0)">
                <path d="M60.833,9L60.833,4C60.833,4 65,4 65,4C65.46,4 65.833,3.552 65.833,3C65.833,2.448 65.46,2 65,2L60,2C59.54,2 59.167,2.448 59.167,3L59.167,9C59.167,9.552 59.54,10 60,10C60.46,10 60.833,9.552 60.833,9Z" style="fill:white;"/>
            </g>
            <g transform="matrix(2.66667,0,0,2.66667,-152,0)">
                <path d="M59,15L59,21C59,21.552 59.448,22 60,22L66,22C66.552,22 67,21.552 67,21C67,20.448 66.552,20 66,20L61,20C61,20 61,15 61,15C61,14.448 60.552,14 60,14C59.448,14 59,14.448 59,15Z" style="fill:white;"/>
            </g>
            <g transform="matrix(2.66667,0,0,2.66667,-152,0)">
                <path d="M72,22L78,22C78.552,22 79,21.552 79,21L79,15C79,14.448 78.552,14 78,14C77.448,14 77,14.448 77,15L77,20C77,20 72,20 72,20C71.448,20 71,20.448 71,21C71,21.552 71.448,22 72,22Z" style="fill:white;"/>
            </g>
            <g transform="matrix(2.66667,0,0,2.66667,-152,0)">
                <path d="M79,9L79,3C79,2.448 78.552,2 78,2L72,2C71.448,2 71,2.448 71,3C71,3.552 71.448,4 72,4L77,4C77,4 77,9 77,9C77,9.552 77.448,10 78,10C78.552,10 79,9.552 79,9Z" style="fill:white;"/>
            </g>
            <g transform="matrix(2.93333,0,0,2.66667,-255.467,1.33333)">
                <path d="M93,8.5L92.977,8.501C92.822,8.509 92.688,8.603 92.612,8.74L92.6,8.762L92.59,8.783L92.581,8.805L92.573,8.828L92.566,8.851L92.56,8.875L92.555,8.899L92.551,8.924L92.548,8.949L92.546,8.974L92.545,9L92.545,16C92.545,16.276 92.749,16.5 93,16.5L103,16.5C103.251,16.5 103.455,16.276 103.455,16L103.455,9C103.455,8.724 103.251,8.5 103,8.5L100.337,8.5C100.245,8.252 100.08,7.934 99.79,7.653C99.433,7.306 98.877,7 98,7C97.123,7 96.567,7.306 96.21,7.653C95.92,7.934 95.755,8.252 95.663,8.5L93,8.5ZM93.455,9.5L93.455,15.5C93.455,15.5 102.545,15.5 102.545,15.5C102.545,15.5 102.545,9.5 102.545,9.5L100,9.5C99.772,9.5 99.58,9.314 99.549,9.066C99.549,9.066 99.495,8.7 99.189,8.403C98.953,8.174 98.578,8 98,8C97.422,8 97.047,8.174 96.811,8.403C96.505,8.7 96.451,9.066 96.451,9.066C96.42,9.314 96.228,9.5 96,9.5L93.455,9.5Z" style="fill:white;"/>
            </g>
            <g transform="matrix(4,0,0,4,-360,-17.3333)">
                <path d="M98,11.667C97.264,11.667 96.667,12.264 96.667,13C96.667,13.736 97.264,14.333 98,14.333C98.736,14.333 99.333,13.736 99.333,13C99.333,12.264 98.736,11.667 98,11.667ZM98,12.333C98.368,12.333 98.667,12.632 98.667,13C98.667,13.368 98.368,13.667 98,13.667C97.632,13.667 97.333,13.368 97.333,13C97.333,12.632 97.632,12.333 98,12.333Z" style="fill:white;"/>
            </g>
        </g>
    </g>
</svg>
