<svg width="30" height="22" viewBox="0 0 30 22" fill="none" xmlns="http://www.w3.org/2000/svg">
<path d="M15 21.4996C12.5398 21.5303 10.1051 20.9993 7.881 19.9471C6.15704 19.106 4.60898 17.9443 3.3195 16.5241C1.95365 15.0558 0.878201 13.3421 0.15 11.4736L0 10.9996L0.1575 10.5256C0.886223 8.65878 1.95935 6.94554 3.321 5.47513C4.61001 4.0551 6.15756 2.89343 7.881 2.05213C10.1051 1.00002 12.5398 0.469049 15 0.499633C17.4602 0.469102 19.8949 1.00007 22.119 2.05213C23.843 2.89323 25.3911 4.05492 26.6805 5.47513C28.0489 6.94147 29.1247 8.65568 29.85 10.5256L30 10.9996L29.8425 11.4736C27.4893 17.5993 21.5613 21.6037 15 21.4996ZM15 3.49963C9.8938 3.33963 5.20713 6.31227 3.1755 10.9996C5.2068 15.6873 9.89369 18.6601 15 18.4996C20.1061 18.6592 24.7925 15.6867 26.8245 10.9996C24.7955 6.31 20.1071 3.33625 15 3.49963ZM15 15.4996C12.836 15.514 10.9641 13.9957 10.5314 11.8753C10.0988 9.75491 11.2264 7.62467 13.2231 6.79012C15.2197 5.95558 17.5279 6.64983 18.7328 8.44739C19.9378 10.2449 19.7031 12.6437 18.1725 14.1736C17.3345 15.0215 16.1921 15.499 15 15.4996Z" fill="white"/>
</svg>
