# Blender v2.92.0 OBJ File: 'monolith-pedestal.blend'
# www.blender.org
o Cube
v 0.900000 0.550000 -0.900000
v 1.000000 0.000000 -1.000000
v 0.900000 0.550000 0.900000
v 1.000000 0.000000 1.000000
v -0.900000 0.550000 -0.900000
v -1.000000 0.000000 -1.000000
v -0.900000 0.550000 0.900000
v -1.000000 0.000000 1.000000
v 1.000000 0.450000 1.000000
v -1.000000 0.450000 1.000000
v 1.000000 0.450000 -1.000000
v -1.000000 0.450000 -1.000000
v 0.900000 0.719585 0.900000
v 0.819585 0.800000 0.819585
v -0.819585 0.800000 0.819585
v -0.900000 0.719585 0.900000
v 0.900000 0.719585 -0.900000
v 0.819585 0.800000 -0.819585
v -0.819585 0.800000 -0.819585
v -0.900000 0.719585 -0.900000
vt 0.375000 0.750000
vt 0.625000 0.750000
vt 0.625000 1.000000
vt 0.375000 1.000000
vt 0.375000 0.000000
vt 0.625000 0.000000
vt 0.625000 0.250000
vt 0.375000 0.250000
vt 0.125000 0.500000
vt 0.375000 0.500000
vt 0.125000 0.750000
vt 0.625000 0.500000
vt 0.660929 0.714071
vt 0.839071 0.714071
vt 0.875000 0.750000
vt 0.660930 0.535930
vt 0.839071 0.535930
vt 0.875000 0.500000
vt 0.660930 0.535930
vt 0.660929 0.714071
vt 0.839071 0.714071
vt 0.839071 0.535930
vt 0.668888 0.543888
vt 0.831112 0.543888
vt 0.831112 0.706112
vt 0.668888 0.706112
vn 0.0000 0.0000 1.0000
vn -1.0000 0.0000 0.0000
vn 0.0000 -1.0000 0.0000
vn 1.0000 0.0000 0.0000
vn 0.0000 0.0000 -1.0000
vn 0.0000 0.7071 0.7071
vn 0.7071 0.7071 0.0000
vn -0.7071 0.7071 0.0000
vn 0.0000 0.7071 -0.7071
vn 0.0000 1.0000 0.0000
s off
f 4/1/1 9/2/1 10/3/1 8/4/1
f 8/5/2 10/6/2 12/7/2 6/8/2
f 6/9/3 2/10/3 4/1/3 8/11/3
f 2/10/4 11/12/4 9/2/4 4/1/4
f 6/8/5 12/7/5 11/12/5 2/10/5
f 3/13/6 7/14/6 10/15/6 9/2/6
f 1/16/7 3/13/7 9/2/7 11/12/7
f 7/14/8 5/17/8 12/18/8 10/15/8
f 5/17/9 1/16/9 11/12/9 12/18/9
f 3/13/4 1/16/4 17/19/4 13/20/4
f 5/17/2 7/14/2 16/21/2 20/22/2
f 1/16/5 5/17/5 20/22/5 17/19/5
f 18/23/10 19/24/10 15/25/10 14/26/10
f 14/26/6 15/25/6 16/21/6 13/20/6
f 18/23/7 14/26/7 13/20/7 17/19/7
f 15/25/8 19/24/8 20/22/8 16/21/8
f 19/24/9 18/23/9 17/19/9 20/22/9
f 7/14/1 3/13/1 13/20/1 16/21/1
